<mxfile host="Electron" agent="Mozilla/5.0 (Windows NT 10.0; Win64; x64) AppleWebKit/537.36 (KHTML, like Gecko) draw.io/26.0.9 Chrome/128.0.6613.186 Electron/32.2.5 Safari/537.36" version="26.0.9">
  <diagram name="Page-1" id="soUpoeZzj57btDxGWfVi">
    <mxGraphModel dx="1764" dy="1238" grid="1" gridSize="10" guides="1" tooltips="1" connect="1" arrows="1" fold="1" page="1" pageScale="1" pageWidth="850" pageHeight="1100" math="0" shadow="0">
      <root>
        <mxCell id="0" />
        <mxCell id="1" parent="0" />
        <mxCell id="tme6JWVOi_Y_XNXNoUK_-1" value="" style="ellipse;html=1;shape=startState;fillColor=#000000;strokeColor=#ff0000;" parent="1" vertex="1">
          <mxGeometry x="325" y="20" width="30" height="30" as="geometry" />
        </mxCell>
        <mxCell id="tme6JWVOi_Y_XNXNoUK_-2" value="" style="edgeStyle=orthogonalEdgeStyle;html=1;verticalAlign=bottom;endArrow=open;endSize=8;strokeColor=#ff0000;rounded=0;" parent="1" source="tme6JWVOi_Y_XNXNoUK_-3" edge="1">
          <mxGeometry relative="1" as="geometry">
            <mxPoint x="340" y="110" as="targetPoint" />
          </mxGeometry>
        </mxCell>
        <mxCell id="tme6JWVOi_Y_XNXNoUK_-5" value="" style="edgeStyle=orthogonalEdgeStyle;rounded=0;orthogonalLoop=1;jettySize=auto;html=1;" parent="1" source="tme6JWVOi_Y_XNXNoUK_-3" target="tme6JWVOi_Y_XNXNoUK_-4" edge="1">
          <mxGeometry relative="1" as="geometry" />
        </mxCell>
        <mxCell id="tme6JWVOi_Y_XNXNoUK_-7" value="" style="edgeStyle=orthogonalEdgeStyle;rounded=0;orthogonalLoop=1;jettySize=auto;html=1;" parent="1" source="tme6JWVOi_Y_XNXNoUK_-4" target="tme6JWVOi_Y_XNXNoUK_-6" edge="1">
          <mxGeometry relative="1" as="geometry" />
        </mxCell>
        <mxCell id="tme6JWVOi_Y_XNXNoUK_-4" value="User selects &quot;Update Student&quot;" style="html=1;align=center;verticalAlign=top;rounded=1;absoluteArcSize=1;arcSize=10;dashed=0;whiteSpace=wrap;fillColor=#d5e8d4;strokeColor=#82b366;" parent="1" vertex="1">
          <mxGeometry x="270" y="150" width="140" height="40" as="geometry" />
        </mxCell>
        <mxCell id="tme6JWVOi_Y_XNXNoUK_-11" value="" style="edgeStyle=orthogonalEdgeStyle;rounded=0;orthogonalLoop=1;jettySize=auto;html=1;" parent="1" source="tme6JWVOi_Y_XNXNoUK_-6" target="tme6JWVOi_Y_XNXNoUK_-10" edge="1">
          <mxGeometry relative="1" as="geometry" />
        </mxCell>
        <mxCell id="tme6JWVOi_Y_XNXNoUK_-6" value="Prompt: &quot;Enter student name&quot;" style="html=1;align=center;verticalAlign=top;rounded=1;absoluteArcSize=1;arcSize=10;dashed=0;whiteSpace=wrap;fillColor=#d5e8d4;strokeColor=#82b366;" parent="1" vertex="1">
          <mxGeometry x="270" y="230" width="140" height="40" as="geometry" />
        </mxCell>
        <mxCell id="tme6JWVOi_Y_XNXNoUK_-13" value="" style="edgeStyle=orthogonalEdgeStyle;rounded=0;orthogonalLoop=1;jettySize=auto;html=1;" parent="1" source="tme6JWVOi_Y_XNXNoUK_-10" target="tme6JWVOi_Y_XNXNoUK_-12" edge="1">
          <mxGeometry relative="1" as="geometry" />
        </mxCell>
        <mxCell id="tme6JWVOi_Y_XNXNoUK_-10" value="Search for student record &lt;div&gt;(via ResultService/FileHandler)&lt;br&gt;&lt;/div&gt;" style="html=1;align=center;verticalAlign=top;rounded=1;absoluteArcSize=1;arcSize=10;dashed=0;whiteSpace=wrap;fillColor=#d5e8d4;strokeColor=#82b366;" parent="1" vertex="1">
          <mxGeometry x="252.5" y="330" width="175" height="40" as="geometry" />
        </mxCell>
        <mxCell id="tme6JWVOi_Y_XNXNoUK_-17" value="" style="edgeStyle=orthogonalEdgeStyle;rounded=0;orthogonalLoop=1;jettySize=auto;html=1;" parent="1" source="tme6JWVOi_Y_XNXNoUK_-12" target="tme6JWVOi_Y_XNXNoUK_-16" edge="1">
          <mxGeometry relative="1" as="geometry" />
        </mxCell>
        <mxCell id="tme6JWVOi_Y_XNXNoUK_-18" value="No" style="edgeLabel;html=1;align=center;verticalAlign=middle;resizable=0;points=[];" parent="tme6JWVOi_Y_XNXNoUK_-17" vertex="1" connectable="0">
          <mxGeometry x="-0.1041" relative="1" as="geometry">
            <mxPoint as="offset" />
          </mxGeometry>
        </mxCell>
        <mxCell id="tme6JWVOi_Y_XNXNoUK_-20" value="" style="edgeStyle=orthogonalEdgeStyle;rounded=0;orthogonalLoop=1;jettySize=auto;html=1;" parent="1" source="tme6JWVOi_Y_XNXNoUK_-12" target="tme6JWVOi_Y_XNXNoUK_-19" edge="1">
          <mxGeometry relative="1" as="geometry" />
        </mxCell>
        <mxCell id="tme6JWVOi_Y_XNXNoUK_-12" value="&lt;div&gt;&lt;br&gt;&lt;/div&gt;&lt;div&gt;Student&amp;nbsp;&lt;/div&gt;&lt;div&gt;Found?&lt;/div&gt;" style="rhombus;whiteSpace=wrap;html=1;verticalAlign=top;rounded=1;arcSize=10;dashed=0;fillColor=#d5e8d4;strokeColor=#82b366;" parent="1" vertex="1">
          <mxGeometry x="302.5" y="410" width="75" height="70" as="geometry" />
        </mxCell>
        <mxCell id="tme6JWVOi_Y_XNXNoUK_-34" style="edgeStyle=orthogonalEdgeStyle;rounded=0;orthogonalLoop=1;jettySize=auto;html=1;exitX=0.5;exitY=1;exitDx=0;exitDy=0;entryX=1;entryY=0.5;entryDx=0;entryDy=0;" parent="1" source="tme6JWVOi_Y_XNXNoUK_-16" target="tme6JWVOi_Y_XNXNoUK_-37" edge="1">
          <mxGeometry relative="1" as="geometry" />
        </mxCell>
        <mxCell id="tme6JWVOi_Y_XNXNoUK_-16" value="Diplay&lt;div&gt;&quot;Student not found!&quot; mesage&lt;/div&gt;" style="whiteSpace=wrap;html=1;verticalAlign=top;rounded=1;arcSize=10;dashed=0;fillColor=#d5e8d4;strokeColor=#82b366;" parent="1" vertex="1">
          <mxGeometry x="505" y="420" width="140" height="50" as="geometry" />
        </mxCell>
        <mxCell id="tme6JWVOi_Y_XNXNoUK_-22" value="" style="edgeStyle=orthogonalEdgeStyle;rounded=0;orthogonalLoop=1;jettySize=auto;html=1;" parent="1" source="tme6JWVOi_Y_XNXNoUK_-19" target="tme6JWVOi_Y_XNXNoUK_-21" edge="1">
          <mxGeometry relative="1" as="geometry" />
        </mxCell>
        <mxCell id="tme6JWVOi_Y_XNXNoUK_-19" value="Prompt for updated details" style="whiteSpace=wrap;html=1;verticalAlign=top;rounded=1;arcSize=10;dashed=0;fillColor=#d5e8d4;strokeColor=#82b366;" parent="1" vertex="1">
          <mxGeometry x="282.5" y="510" width="115" height="35" as="geometry" />
        </mxCell>
        <mxCell id="tme6JWVOi_Y_XNXNoUK_-24" value="" style="edgeStyle=orthogonalEdgeStyle;rounded=0;orthogonalLoop=1;jettySize=auto;html=1;" parent="1" source="tme6JWVOi_Y_XNXNoUK_-21" target="tme6JWVOi_Y_XNXNoUK_-23" edge="1">
          <mxGeometry relative="1" as="geometry" />
        </mxCell>
        <mxCell id="tme6JWVOi_Y_XNXNoUK_-21" value="User enters updated details" style="whiteSpace=wrap;html=1;verticalAlign=top;rounded=1;arcSize=10;dashed=0;fillColor=#d5e8d4;strokeColor=#82b366;" parent="1" vertex="1">
          <mxGeometry x="282.5" y="586.25" width="115" height="35" as="geometry" />
        </mxCell>
        <mxCell id="tme6JWVOi_Y_XNXNoUK_-26" value="" style="edgeStyle=orthogonalEdgeStyle;rounded=0;orthogonalLoop=1;jettySize=auto;html=1;" parent="1" source="tme6JWVOi_Y_XNXNoUK_-23" target="tme6JWVOi_Y_XNXNoUK_-25" edge="1">
          <mxGeometry relative="1" as="geometry" />
        </mxCell>
        <mxCell id="tme6JWVOi_Y_XNXNoUK_-27" value="No" style="edgeLabel;html=1;align=center;verticalAlign=middle;resizable=0;points=[];" parent="tme6JWVOi_Y_XNXNoUK_-26" vertex="1" connectable="0">
          <mxGeometry x="0.0726" y="-2" relative="1" as="geometry">
            <mxPoint as="offset" />
          </mxGeometry>
        </mxCell>
        <mxCell id="tme6JWVOi_Y_XNXNoUK_-29" value="" style="edgeStyle=orthogonalEdgeStyle;rounded=0;orthogonalLoop=1;jettySize=auto;html=1;" parent="1" source="tme6JWVOi_Y_XNXNoUK_-23" target="tme6JWVOi_Y_XNXNoUK_-28" edge="1">
          <mxGeometry relative="1" as="geometry" />
        </mxCell>
        <mxCell id="tme6JWVOi_Y_XNXNoUK_-42" value="Yes" style="edgeLabel;html=1;align=center;verticalAlign=middle;resizable=0;points=[];" parent="tme6JWVOi_Y_XNXNoUK_-29" vertex="1" connectable="0">
          <mxGeometry x="-0.2476" relative="1" as="geometry">
            <mxPoint as="offset" />
          </mxGeometry>
        </mxCell>
        <mxCell id="tme6JWVOi_Y_XNXNoUK_-23" value="&lt;div&gt;&lt;br&gt;&lt;/div&gt;&lt;div&gt;&lt;span style=&quot;background-color: transparent; color: light-dark(rgb(0, 0, 0), rgb(255, 255, 255));&quot;&gt;Valid&amp;nbsp;&lt;/span&gt;&lt;br&gt;&lt;/div&gt;&lt;div&gt;input?&lt;/div&gt;" style="rhombus;whiteSpace=wrap;html=1;verticalAlign=top;rounded=1;arcSize=10;dashed=0;fillColor=#d5e8d4;strokeColor=#82b366;" parent="1" vertex="1">
          <mxGeometry x="295" y="660" width="90" height="70" as="geometry" />
        </mxCell>
        <mxCell id="tme6JWVOi_Y_XNXNoUK_-33" style="edgeStyle=orthogonalEdgeStyle;rounded=0;orthogonalLoop=1;jettySize=auto;html=1;entryX=1;entryY=0.5;entryDx=0;entryDy=0;exitX=0.5;exitY=1;exitDx=0;exitDy=0;" parent="1" source="tme6JWVOi_Y_XNXNoUK_-25" target="tme6JWVOi_Y_XNXNoUK_-37" edge="1">
          <mxGeometry relative="1" as="geometry" />
        </mxCell>
        <mxCell id="tme6JWVOi_Y_XNXNoUK_-25" value="Throws invalid input exception" style="whiteSpace=wrap;html=1;verticalAlign=top;rounded=1;arcSize=10;dashed=0;fillColor=#d5e8d4;strokeColor=#82b366;" parent="1" vertex="1">
          <mxGeometry x="435" y="675.63" width="115" height="38.75" as="geometry" />
        </mxCell>
        <mxCell id="tme6JWVOi_Y_XNXNoUK_-31" value="" style="edgeStyle=orthogonalEdgeStyle;rounded=0;orthogonalLoop=1;jettySize=auto;html=1;" parent="1" source="tme6JWVOi_Y_XNXNoUK_-28" target="tme6JWVOi_Y_XNXNoUK_-30" edge="1">
          <mxGeometry relative="1" as="geometry" />
        </mxCell>
        <mxCell id="tme6JWVOi_Y_XNXNoUK_-28" value="Update student record in memory and file" style="whiteSpace=wrap;html=1;verticalAlign=top;rounded=1;arcSize=10;dashed=0;fillColor=#d5e8d4;strokeColor=#82b366;" parent="1" vertex="1">
          <mxGeometry x="277.5" y="770" width="125" height="40" as="geometry" />
        </mxCell>
        <mxCell id="tme6JWVOi_Y_XNXNoUK_-38" value="" style="edgeStyle=orthogonalEdgeStyle;rounded=0;orthogonalLoop=1;jettySize=auto;html=1;" parent="1" source="tme6JWVOi_Y_XNXNoUK_-30" target="tme6JWVOi_Y_XNXNoUK_-37" edge="1">
          <mxGeometry relative="1" as="geometry" />
        </mxCell>
        <mxCell id="tme6JWVOi_Y_XNXNoUK_-30" value="Display confirmation:&lt;div&gt;&quot;Student updated successfully!&quot;&lt;/div&gt;" style="whiteSpace=wrap;html=1;verticalAlign=top;rounded=1;arcSize=10;dashed=0;fillColor=#d5e8d4;strokeColor=#82b366;" parent="1" vertex="1">
          <mxGeometry x="277.5" y="850" width="125" height="60" as="geometry" />
        </mxCell>
        <mxCell id="tme6JWVOi_Y_XNXNoUK_-40" style="edgeStyle=orthogonalEdgeStyle;rounded=0;orthogonalLoop=1;jettySize=auto;html=1;exitX=0.5;exitY=1;exitDx=0;exitDy=0;entryX=0.5;entryY=0;entryDx=0;entryDy=0;" parent="1" source="tme6JWVOi_Y_XNXNoUK_-37" target="tme6JWVOi_Y_XNXNoUK_-39" edge="1">
          <mxGeometry relative="1" as="geometry" />
        </mxCell>
        <mxCell id="tme6JWVOi_Y_XNXNoUK_-37" value="Return Main menu" style="whiteSpace=wrap;html=1;verticalAlign=top;rounded=1;arcSize=10;dashed=0;fillColor=#d5e8d4;strokeColor=#82b366;" parent="1" vertex="1">
          <mxGeometry x="280" y="940" width="120" height="40" as="geometry" />
        </mxCell>
        <mxCell id="tme6JWVOi_Y_XNXNoUK_-39" value="" style="ellipse;html=1;shape=endState;fillColor=#000000;strokeColor=#ff0000;" parent="1" vertex="1">
          <mxGeometry x="325" y="1020" width="30" height="30" as="geometry" />
        </mxCell>
        <mxCell id="tme6JWVOi_Y_XNXNoUK_-41" value="" style="edgeStyle=orthogonalEdgeStyle;html=1;verticalAlign=bottom;endArrow=open;endSize=8;strokeColor=#ff0000;rounded=0;" parent="1" source="tme6JWVOi_Y_XNXNoUK_-1" target="tme6JWVOi_Y_XNXNoUK_-3" edge="1">
          <mxGeometry relative="1" as="geometry">
            <mxPoint x="340" y="110" as="targetPoint" />
            <mxPoint x="340" y="50" as="sourcePoint" />
          </mxGeometry>
        </mxCell>
        <mxCell id="tme6JWVOi_Y_XNXNoUK_-3" value="Display Main Menu" style="html=1;align=center;verticalAlign=top;rounded=1;absoluteArcSize=1;arcSize=10;dashed=0;whiteSpace=wrap;fillColor=#d5e8d4;strokeColor=#82b366;" parent="1" vertex="1">
          <mxGeometry x="270" y="80" width="140" height="40" as="geometry" />
        </mxCell>
      </root>
    </mxGraphModel>
  </diagram>
</mxfile>
